<svg xmlns="http://www.w3.org/2000/svg" version="1.1" xmlns:xlink="http://www.w3.org/1999/xlink" xmlns:svgjs="http://svgjs.dev/svgjs" width="1000" height="750" viewBox="0 0 1000 750"><rect width="1000" height="750" fill="#ffffff"></rect><g transform="matrix(0.834,0,0,0.834,82.49454545454546,307.3539377912195)"><svg viewBox="0 0 396 64" data-background-color="#ffffff" preserveAspectRatio="xMidYMid meet" height="161" width="1000" xmlns="http://www.w3.org/2000/svg" xmlns:xlink="http://www.w3.org/1999/xlink"><g id="tight-bounds" transform="matrix(1,0,0,1,0.2400000000000091,0.242638048780492)"><svg viewBox="0 0 395.52 63.51472390243902" height="63.51472390243902" width="395.52"><g><svg viewBox="0 0 395.52 63.51472390243902" height="63.51472390243902" width="395.52"><g><svg viewBox="0 0 395.52 63.51472390243902" height="63.51472390243902" width="395.52"><g id="textblocktransform"><svg viewBox="0 0 395.52 63.51472390243902" height="63.51472390243902" width="395.52" id="textblock"><g><svg viewBox="0 0 395.52 63.51472390243902" height="63.51472390243902" width="395.52"><g transform="matrix(1,0,0,1,0,0)"><svg width="395.52" viewBox="0 -38.57 250.23 40.18" height="63.51472390243902" data-palette-color="#0095f6"><path d="M37.89-35.99L45.41-35.6Q44.38-26.46 42.87-17.85 41.36-9.23 39.31-0.24L39.31-0.24Q38.77-0.2 38.18-0.2 37.6-0.2 37.06-0.2L37.06-0.2Q35.79-0.2 34.55-0.24 33.3-0.29 32.03-0.54L32.03-0.54Q30.47-3.81 28.76-7.01 27.05-10.21 25.54-13.57L25.54-13.57Q24.85-11.91 24-10.35 23.14-8.79 22.17-7.23L22.17-7.23Q20.9-5.32 19.73-3.37 18.55-1.42 17.43 0.59L17.43 0.59 9.47 0.39Q8.35-4 7.35-8.3 6.35-12.6 5.37-16.99L5.37-16.99Q4.1-22.46 2.76-27.81 1.42-33.15 0-38.57L0-38.57 14.16-38.57Q14.36-36.96 14.5-35.35 14.65-33.74 14.79-32.18L14.79-32.18Q15.19-27.93 15.67-23.75 16.16-19.58 16.65-15.33L16.65-15.33Q17.48-18.31 18.33-21.24 19.19-24.17 20.21-27.1L20.21-27.1Q21.09-29.74 21.92-32.3 22.75-34.86 23.54-37.5L23.54-37.5 25.93-37.5Q27.54-31.59 29.54-25.9 31.54-20.21 33.89-14.55L33.89-14.55Q35.11-19.87 36.01-25.24 36.91-30.62 37.89-35.99L37.89-35.99ZM77.68-36.23L78.22-29.74Q73.44-29.49 68.72-29.22 64.01-28.96 59.23-28.56L59.23-28.56 59.13-24.71 71.73-25.44Q71.97-23.78 72.09-22.17 72.21-20.56 72.21-18.9L72.21-18.9Q72.21-18.21 72.19-17.48 72.17-16.75 72.17-16.06L72.17-16.06 60.45-13.96 61.18-7.91Q64.89-8.15 68.58-8.62 72.26-9.08 76.02-9.42L76.02-9.42Q76.36-6.98 76.71-4.52 77.05-2.05 77.68 0.29L77.68 0.29Q70.75 0.24 63.91 0.32 57.08 0.39 50.14 0.39L50.14 0.39Q50.29-5.32 50.49-10.99 50.68-16.65 50.68-22.41L50.68-22.41 50.68-23.34Q50.68-26.66 50.58-29.96 50.49-33.25 50.39-36.62L50.39-36.62Q54.25-36.57 58.08-36.6 61.91-36.62 65.82-36.62L65.82-36.62Q68.8-36.62 71.75-36.5 74.7-36.38 77.68-36.23L77.68-36.23ZM120.75-15.72L120.75-15.72Q120.75-11.43 120.72-7.25 120.7-3.08 120.65 1.22L120.65 1.22Q117.62 1.07 114.64 1.07L114.64 1.07Q113.18 1.07 111.69 1.22 110.2 1.37 108.74 1.61L108.74 1.61Q106.88-2.44 105.02-6.42 103.17-10.4 101.31-14.45L101.31-14.45Q99.95-17.43 98.73-20.41 97.5-23.39 96.28-26.42L96.28-26.42Q95.84-19.82 95.38-13.31 94.92-6.79 94.62-0.2L94.62-0.2 84.08-0.49Q83.83-9.86 83.64-19.14 83.44-28.42 82.95-37.79L82.95-37.79 102.05-37.89Q103.02-35.45 103.88-32.98 104.73-30.52 105.51-27.98L105.51-27.98Q106.64-24.12 108.05-20.34 109.47-16.55 110.88-12.74L110.88-12.74Q110.83-18.85 110.66-24.9 110.49-30.96 110.4-37.11L110.4-37.11 120.26-35.94Q120.45-30.86 120.6-25.83 120.75-20.8 120.75-15.72ZM155.9-25.73L155.9-25.73Q151.65-25.49 147.53-25.34 143.4-25.2 139.2-24.8L139.2-24.8 139.59-20.61 147.7-20.07 149.06-15.19Q146.87-14.7 144.65-14.43 142.42-14.16 140.23-13.72L140.23-13.72Q140.72-10.06 140.91-6.42 141.11-2.78 141.11 0.88L141.11 0.88 128.26 1.32Q128.51-4.39 128.56-10.03 128.61-15.67 128.61-21.39L128.61-21.39 128.61-25.73 128.61-35.55Q131.44-35.6 134.2-35.67 136.96-35.74 139.79-35.74L139.79-35.74Q143.6-35.74 147.4-35.57 151.21-35.4 155.07-35.21L155.07-35.21Q155.36-32.86 155.63-30.49 155.9-28.13 155.9-25.73ZM183.93-10.35L184.66-1.22Q178.85-0.78 173.11-0.39 167.37 0 161.56 0.34L161.56 0.34Q161.32-8.98 161.17-18.19 161.03-27.39 160.63-36.77L160.63-36.77Q163.91-36.82 167.08-36.96 170.25-37.11 173.48-37.35L173.48-37.35Q172.94-33.74 172.48-30.1 172.01-26.46 171.77-22.8L171.77-22.8Q171.57-19.73 171.45-16.67 171.33-13.62 171.23-10.55L171.23-10.55Q174.45-10.45 177.6-10.45 180.75-10.45 183.93-10.35L183.93-10.35ZM208.09-35.84L208.09-35.84Q207.85-32.86 207.9-29.91 207.95-26.95 207.85-24.02L207.85-24.02 202.43-24.22Q202.38-22.51 202.36-20.85 202.33-19.19 202.33-17.48L202.33-17.48Q202.33-15.43 202.36-13.45 202.38-11.47 202.43-9.42L202.43-9.42 207.41-9.33Q207.31-7.91 207.31-6.45 207.31-4.98 207.31-3.52L207.31-3.52Q207.31-2.29 207.38-1.07 207.46 0.15 207.7 1.32L207.7 1.32 190.17 1.61Q190.17-0.78 190.12-3.1 190.08-5.42 189.93-7.81L189.93-7.81 193.1-7.86Q192.86-12.45 192.54-16.94 192.22-21.44 191.88-25.98L191.88-25.98 187.24-26.56Q187.15-28.61 187.07-30.64 187-32.67 186.9-34.72L186.9-34.72Q192.22-34.91 197.47-35.18 202.72-35.45 208.09-35.84ZM250.23-36.62L250.23-36.62Q246.47-31.98 242.78-27.42 239.1-22.85 235.14-18.36L235.14-18.36Q237.92-13.82 241-9.42L241-9.42Q242.66-7.08 244.42-4.81 246.18-2.54 247.98-0.24L247.98-0.24 235.68 0.15Q234.07-2.64 232.36-5.3 230.65-7.96 229.04-10.74L229.04-10.74Q227.18-8.01 225.47-5.3 223.76-2.59 222.1 0.24L222.1 0.24Q221.03 0.05 219.91 0.02 218.78 0 217.66 0L217.66 0Q215.81 0 213.93 0.07 212.05 0.15 210.19 0.24L210.19 0.24 222.98-16.26Q221.86-18.12 220.76-19.92 219.66-21.73 218.54-23.54L218.54-23.54Q216.44-26.76 214.22-29.91 212-33.06 209.8-36.23L209.8-36.23Q213.32-36.04 216.73-35.99 220.15-35.94 223.62-35.74L223.62-35.74Q225.08-33.25 226.67-30.83 228.26-28.42 229.82-25.98L229.82-25.98Q231.63-28.56 233.41-31.13 235.19-33.69 236.8-36.38L236.8-36.38Q238.02-36.28 239.22-36.3 240.41-36.33 241.64-36.33L241.64-36.33Q245.88-36.33 250.23-36.62Z" opacity="1" transform="matrix(1,0,0,1,0,0)" fill="#0095f6" class="wordmark-text-0" data-fill-palette-color="primary" id="text-0"></path></svg></g></svg></g></svg></g></svg></g><g></g></svg></g><defs></defs></svg><rect width="395.52" height="63.51472390243902" fill="none" stroke="none" visibility="hidden"></rect></g></svg></g></svg>